<svg width="576" height="512" viewBox="0 0 576 512" fill="none" xmlns="http://www.w3.org/2000/svg">
<g clip-path="url(#clip0_1537_8173)">
<path d="M128 0C110.3 0 96 14.3 96 32V384C96 401.7 110.3 416 128 416H192C209.7 416 224 401.7 224 384V32C224 14.3 209.7 0 192 0H128ZM64 32C28.7 32 0 60.7 0 96V448C0 483.3 28.7 512 64 512H512C547.3 512 576 483.3 576 448V96C576 60.7 547.3 32 512 32H256V384C256 419.3 227.3 448 192 448H128C92.7 448 64 419.3 64 384V32ZM320 128C320 110.3 334.3 96 352 96H480C497.7 96 512 110.3 512 128V160C512 177.7 497.7 192 480 192H352C334.3 192 320 177.7 320 160V128ZM352 320C343.513 320 335.374 316.629 329.373 310.627C323.371 304.626 320 296.487 320 288C320 279.513 323.371 271.374 329.373 265.373C335.374 259.371 343.513 256 352 256C360.487 256 368.626 259.371 374.627 265.373C380.629 271.374 384 279.513 384 288C384 296.487 380.629 304.626 374.627 310.627C368.626 316.629 360.487 320 352 320ZM512 288C512 296.487 508.629 304.626 502.627 310.627C496.626 316.629 488.487 320 480 320C471.513 320 463.374 316.629 457.373 310.627C451.371 304.626 448 296.487 448 288C448 279.513 451.371 271.374 457.373 265.373C463.374 259.371 471.513 256 480 256C488.487 256 496.626 259.371 502.627 265.373C508.629 271.374 512 279.513 512 288ZM480 448C471.513 448 463.374 444.629 457.373 438.627C451.371 432.626 448 424.487 448 416C448 407.513 451.371 399.374 457.373 393.373C463.374 387.371 471.513 384 480 384C488.487 384 496.626 387.371 502.627 393.373C508.629 399.374 512 407.513 512 416C512 424.487 508.629 432.626 502.627 438.627C496.626 444.629 488.487 448 480 448ZM384 416C384 424.487 380.629 432.626 374.627 438.627C368.626 444.629 360.487 448 352 448C343.513 448 335.374 444.629 329.373 438.627C323.371 432.626 320 424.487 320 416C320 407.513 323.371 399.374 329.373 393.373C335.374 387.371 343.513 384 352 384C360.487 384 368.626 387.371 374.627 393.373C380.629 399.374 384 407.513 384 416Z" fill="#1A2D49"/>
</g>
<defs>
<clipPath id="clip0_1537_8173">
<rect width="576" height="512" fill="white"/>
</clipPath>
</defs>
</svg>
